<svg xmlns="http://www.w3.org/2000/svg" viewBox="0 0 160 112" role="img" aria-labelledby="title">
  <title id="title">CouchPilot gamepad mark</title>
  <path d="M44 25h72c13 0 23 8 27 20l12 37c5 16-13 29-26 18l-19-17H50l-19 17C18 111 0 98 5 82l12-37c4-12 14-20 27-20Z" fill="#201d19" stroke="#e4572e" stroke-width="6" stroke-linejoin="round"/>
  <path d="M43 49v24M31 61h24" stroke="#fffaf0" stroke-width="8" stroke-linecap="round"/>
  <circle cx="117" cy="50" r="6" fill="#e4572e"/>
  <circle cx="132" cy="65" r="6" fill="#f0c84b"/>
  <circle cx="101" cy="66" r="8" fill="#201d19" stroke="#fffaf0" stroke-width="4"/>
  <circle cx="73" cy="66" r="8" fill="#201d19" stroke="#f0c84b" stroke-width="4"/>
  <path d="M61 28 74 14h25l13 14" fill="none" stroke="#e4572e" stroke-width="6" stroke-linecap="round" stroke-linejoin="round"/>
</svg>
